<?xml version="1.0" encoding="iso-8859-1"?>
<!-- Uploaded to: SVG Repo, www.svgrepo.com, Generator: SVG Repo Mixer Tools -->
<svg height="800px" width="800px" version="1.1" id="Layer_1" xmlns="http://www.w3.org/2000/svg" xmlns:xlink="http://www.w3.org/1999/xlink" 
	 viewBox="0 0 512 512" xml:space="preserve">
<path style="fill:#868d9a;" d="M496.862,169.264C461.247,70.667,366.725,0,256,0S50.753,70.667,15.138,169.264
	c-0.369,0.861-0.676,1.755-0.94,2.665C5.011,198.276,0,226.563,0,256.002c0,29.442,5.011,57.732,14.199,84.081
	c0.264,0.903,0.566,1.786,0.934,2.641C50.742,441.327,145.268,512,256,512s205.258-70.673,240.867-169.278
	c0.366-0.853,0.67-1.738,0.934-2.641C506.989,313.732,512,285.443,512,256c0-29.438-5.01-57.726-14.196-84.072
	C497.54,171.019,497.231,170.125,496.862,169.264z"/>
<g>
	<path style="fill:#232529;" d="M439.524,155.15h-90.042c-4-26.028-9.551-50.083-16.548-71.073
		c-3.339-10.021-6.858-18.866-10.491-26.725C372.593,74.172,414.331,109.484,439.524,155.15z"/>
	<path style="fill:#232529;" d="M223.226,98.797c13.158-39.48,27.763-52.252,32.774-52.252c5.011,0,19.617,12.772,32.776,52.252
		c5.57,16.713,10.117,35.738,13.588,56.354h-92.728C213.108,134.535,217.654,115.51,223.226,98.797z"/>
	<path style="fill:#232529;" d="M189.558,57.353c-3.632,7.858-7.148,16.704-10.49,26.725c-6.997,20.99-12.55,45.045-16.548,71.073
		H72.476C97.669,109.484,139.408,74.17,189.558,57.353z"/>
	<path style="fill:#232529;" d="M46.545,256.002c0-18.776,2.496-36.979,7.154-54.306h103.525
		c-1.354,17.642-2.073,35.818-2.073,54.306c0,18.485,0.718,36.659,2.073,54.3H53.696C49.042,292.976,46.545,274.776,46.545,256.002z
		"/>
	<path style="fill:#232529;" d="M72.473,356.847h90.045c4,26.028,9.553,50.084,16.55,71.076c3.34,10.021,6.858,18.866,10.491,26.725
		C139.407,437.83,97.666,402.516,72.473,356.847z"/>
	<path style="fill:#232529;" d="M288.776,413.204c-13.158,39.478-27.764,52.25-32.776,52.25c-5.011,0-19.616-12.772-32.774-52.252
		c-5.572-16.713-10.121-35.739-13.59-56.356h92.729C298.893,377.465,294.347,396.491,288.776,413.204z"/>
	<path style="fill:#232529;" d="M308.125,310.301H203.877c-1.437-17.517-2.178-35.719-2.178-54.3
		c0-18.584,0.743-36.788,2.178-54.306h104.248c1.437,17.518,2.178,35.722,2.178,54.306
		C310.303,274.582,309.56,292.785,308.125,310.301z"/>
	<path style="fill:#232529;" d="M322.442,454.647c3.634-7.858,7.151-16.704,10.491-26.725c6.997-20.99,12.55-45.047,16.548-71.076
		h90.045C414.334,402.514,372.593,437.828,322.442,454.647z"/>
	<path style="fill:#232529;" d="M458.304,310.301H354.776c1.354-17.641,2.073-35.815,2.073-54.3c0-18.486-0.718-36.662-2.073-54.306
		h103.525c4.658,17.327,7.154,35.528,7.154,54.306C465.455,274.776,462.958,292.976,458.304,310.301z"/>
</g>
<g>
	<path style="fill:none;" d="M201.697,256.002c0,18.581,0.743,36.783,2.178,54.3h52.015V201.695h-52.015
		C202.44,219.215,201.697,237.417,201.697,256.002z"/>
	<path style="fill:none;" d="M223.226,98.797c-5.572,16.713-10.117,35.738-13.59,56.354h46.255V46.553
		C250.784,46.729,236.294,59.587,223.226,98.797z"/>
	<path style="fill:none;" d="M179.068,84.077c3.34-10.021,6.858-18.866,10.49-26.725c-50.15,16.818-91.888,52.132-117.082,97.8
		h90.044C166.518,129.123,172.071,105.067,179.068,84.077z"/>
	<path style="fill:none;" d="M162.518,356.847H72.473c25.194,45.669,66.934,80.983,117.087,97.801
		c-3.634-7.858-7.149-16.704-10.491-26.725C172.071,406.931,166.518,382.875,162.518,356.847z"/>
	<path style="fill:none;" d="M223.226,413.203c13.068,39.208,27.558,52.069,32.666,52.243v-108.6h-46.255
		C213.107,377.463,217.654,396.49,223.226,413.203z"/>
	<path style="fill:none;" d="M155.152,256.002c0-18.486,0.718-36.662,2.073-54.305H53.699
		c-4.658,17.326-7.154,35.528-7.154,54.305c0,18.775,2.496,36.974,7.151,54.3h103.528
		C155.87,292.661,155.152,274.486,155.152,256.002z"/>
</g>
<path style="fill:#868d9a;" d="M223.226,413.203c-5.572-16.713-10.119-35.739-13.59-56.356h46.255v-46.545h-52.015
	c-1.437-17.517-2.178-35.719-2.178-54.3c0-18.584,0.743-36.786,2.178-54.305h52.015v-46.545h-46.255
	c3.471-20.617,8.018-39.641,13.59-56.354c13.068-39.208,27.558-52.069,32.666-52.243V0.002
	C145.213,0.048,50.741,70.699,15.138,169.264c-0.369,0.861-0.678,1.755-0.94,2.665C5.01,198.276,0,226.563,0,256.002
	c0,29.443,5.011,57.732,14.199,84.081c0.264,0.903,0.566,1.786,0.934,2.641c35.598,98.571,130.073,169.228,240.758,169.275v-46.553
	C250.784,465.271,236.294,452.412,223.226,413.203z M189.558,57.353c-3.632,7.858-7.148,16.704-10.49,26.725
	c-6.997,20.99-12.55,45.045-16.548,71.073H72.476C97.669,109.484,139.408,74.17,189.558,57.353z M46.545,256.002
	c0-18.776,2.496-36.977,7.154-54.305h103.525c-1.354,17.642-2.073,35.818-2.073,54.305c0,18.485,0.718,36.659,2.073,54.3H53.696
	C49.042,292.976,46.545,274.776,46.545,256.002z M72.473,356.847h90.045c4,26.028,9.553,50.084,16.55,71.076
	c3.34,10.021,6.858,18.866,10.491,26.725C139.407,437.83,97.666,402.516,72.473,356.847z"/>
</svg>